<mxfile host="app.diagrams.net" agent="Mozilla/5.0 (Windows NT 10.0; Win64; x64; rv:128.0) Gecko/20100101 Firefox/128.0" version="24.7.6">
  <diagram name="Page-1" id="BGSFPJa9GvFgZDjpxM5K">
    <mxGraphModel dx="572" dy="1593" grid="1" gridSize="10" guides="1" tooltips="1" connect="1" arrows="1" fold="1" page="1" pageScale="1" pageWidth="850" pageHeight="1100" math="0" shadow="0">
      <root>
        <mxCell id="0" />
        <mxCell id="1" parent="0" />
        <mxCell id="4_NJYxRiMZ9WNobx1-F2-2" value="" style="endArrow=none;html=1;rounded=0;" edge="1" parent="1">
          <mxGeometry width="50" height="50" relative="1" as="geometry">
            <mxPoint x="160" y="480" as="sourcePoint" />
            <mxPoint x="670" y="480" as="targetPoint" />
          </mxGeometry>
        </mxCell>
        <mxCell id="4_NJYxRiMZ9WNobx1-F2-5" value="" style="endArrow=none;html=1;rounded=0;" edge="1" parent="1">
          <mxGeometry width="50" height="50" relative="1" as="geometry">
            <mxPoint x="160" y="510" as="sourcePoint" />
            <mxPoint x="160" y="480" as="targetPoint" />
          </mxGeometry>
        </mxCell>
        <mxCell id="4_NJYxRiMZ9WNobx1-F2-6" value="" style="endArrow=none;html=1;rounded=0;" edge="1" parent="1">
          <mxGeometry width="50" height="50" relative="1" as="geometry">
            <mxPoint x="130" y="510" as="sourcePoint" />
            <mxPoint x="160" y="510" as="targetPoint" />
          </mxGeometry>
        </mxCell>
        <mxCell id="4_NJYxRiMZ9WNobx1-F2-7" value="" style="endArrow=none;html=1;rounded=0;" edge="1" parent="1">
          <mxGeometry width="50" height="50" relative="1" as="geometry">
            <mxPoint x="130" y="650" as="sourcePoint" />
            <mxPoint x="130" y="510" as="targetPoint" />
          </mxGeometry>
        </mxCell>
        <mxCell id="4_NJYxRiMZ9WNobx1-F2-8" value="" style="endArrow=none;html=1;rounded=0;" edge="1" parent="1">
          <mxGeometry width="50" height="50" relative="1" as="geometry">
            <mxPoint x="130" y="650" as="sourcePoint" />
            <mxPoint x="190" y="650" as="targetPoint" />
          </mxGeometry>
        </mxCell>
        <mxCell id="4_NJYxRiMZ9WNobx1-F2-9" value="" style="endArrow=none;html=1;rounded=0;" edge="1" parent="1">
          <mxGeometry width="50" height="50" relative="1" as="geometry">
            <mxPoint x="190" y="650" as="sourcePoint" />
            <mxPoint x="190" y="660" as="targetPoint" />
          </mxGeometry>
        </mxCell>
        <mxCell id="4_NJYxRiMZ9WNobx1-F2-10" value="" style="endArrow=none;html=1;rounded=0;" edge="1" parent="1">
          <mxGeometry width="50" height="50" relative="1" as="geometry">
            <mxPoint x="190" y="660" as="sourcePoint" />
            <mxPoint x="240" y="660" as="targetPoint" />
          </mxGeometry>
        </mxCell>
        <mxCell id="4_NJYxRiMZ9WNobx1-F2-11" value="" style="endArrow=none;html=1;rounded=0;" edge="1" parent="1">
          <mxGeometry width="50" height="50" relative="1" as="geometry">
            <mxPoint x="240" y="660" as="sourcePoint" />
            <mxPoint x="240" y="680" as="targetPoint" />
          </mxGeometry>
        </mxCell>
        <mxCell id="4_NJYxRiMZ9WNobx1-F2-12" value="" style="endArrow=none;html=1;rounded=0;" edge="1" parent="1">
          <mxGeometry width="50" height="50" relative="1" as="geometry">
            <mxPoint x="240" y="680" as="sourcePoint" />
            <mxPoint x="280" y="680" as="targetPoint" />
          </mxGeometry>
        </mxCell>
        <mxCell id="4_NJYxRiMZ9WNobx1-F2-13" value="" style="endArrow=none;html=1;rounded=0;" edge="1" parent="1">
          <mxGeometry width="50" height="50" relative="1" as="geometry">
            <mxPoint x="280" y="680" as="sourcePoint" />
            <mxPoint x="320" y="640" as="targetPoint" />
          </mxGeometry>
        </mxCell>
        <mxCell id="4_NJYxRiMZ9WNobx1-F2-14" value="" style="endArrow=none;html=1;rounded=0;" edge="1" parent="1">
          <mxGeometry width="50" height="50" relative="1" as="geometry">
            <mxPoint x="320" y="640" as="sourcePoint" />
            <mxPoint x="330" y="640" as="targetPoint" />
          </mxGeometry>
        </mxCell>
        <mxCell id="4_NJYxRiMZ9WNobx1-F2-15" value="" style="endArrow=none;html=1;rounded=0;" edge="1" parent="1">
          <mxGeometry width="50" height="50" relative="1" as="geometry">
            <mxPoint x="330" y="640" as="sourcePoint" />
            <mxPoint x="370" y="600" as="targetPoint" />
          </mxGeometry>
        </mxCell>
        <mxCell id="4_NJYxRiMZ9WNobx1-F2-16" value="" style="endArrow=none;html=1;rounded=0;" edge="1" parent="1">
          <mxGeometry width="50" height="50" relative="1" as="geometry">
            <mxPoint x="370" y="600" as="sourcePoint" />
            <mxPoint x="430" y="600" as="targetPoint" />
          </mxGeometry>
        </mxCell>
        <mxCell id="4_NJYxRiMZ9WNobx1-F2-17" value="" style="endArrow=none;html=1;rounded=0;" edge="1" parent="1">
          <mxGeometry width="50" height="50" relative="1" as="geometry">
            <mxPoint x="430" y="600" as="sourcePoint" />
            <mxPoint x="440" y="610" as="targetPoint" />
          </mxGeometry>
        </mxCell>
        <mxCell id="4_NJYxRiMZ9WNobx1-F2-18" value="" style="endArrow=none;html=1;rounded=0;" edge="1" parent="1">
          <mxGeometry width="50" height="50" relative="1" as="geometry">
            <mxPoint x="440" y="610" as="sourcePoint" />
            <mxPoint x="410" y="850" as="targetPoint" />
          </mxGeometry>
        </mxCell>
        <mxCell id="4_NJYxRiMZ9WNobx1-F2-19" value="" style="endArrow=none;html=1;rounded=0;" edge="1" parent="1">
          <mxGeometry width="50" height="50" relative="1" as="geometry">
            <mxPoint x="660" y="710" as="sourcePoint" />
            <mxPoint x="660" y="480" as="targetPoint" />
          </mxGeometry>
        </mxCell>
        <mxCell id="4_NJYxRiMZ9WNobx1-F2-20" value="" style="endArrow=none;html=1;rounded=0;" edge="1" parent="1">
          <mxGeometry width="50" height="50" relative="1" as="geometry">
            <mxPoint x="410" y="850" as="sourcePoint" />
            <mxPoint x="410" y="890" as="targetPoint" />
          </mxGeometry>
        </mxCell>
        <mxCell id="4_NJYxRiMZ9WNobx1-F2-21" value="" style="endArrow=none;html=1;rounded=0;" edge="1" parent="1">
          <mxGeometry width="50" height="50" relative="1" as="geometry">
            <mxPoint x="410" y="890" as="sourcePoint" />
            <mxPoint x="490" y="890" as="targetPoint" />
          </mxGeometry>
        </mxCell>
        <mxCell id="4_NJYxRiMZ9WNobx1-F2-22" value="" style="endArrow=none;html=1;rounded=0;" edge="1" parent="1">
          <mxGeometry width="50" height="50" relative="1" as="geometry">
            <mxPoint x="490" y="890" as="sourcePoint" />
            <mxPoint x="490" y="880" as="targetPoint" />
          </mxGeometry>
        </mxCell>
        <mxCell id="4_NJYxRiMZ9WNobx1-F2-23" value="" style="endArrow=none;html=1;rounded=0;" edge="1" parent="1">
          <mxGeometry width="50" height="50" relative="1" as="geometry">
            <mxPoint x="490" y="880" as="sourcePoint" />
            <mxPoint x="520" y="880" as="targetPoint" />
          </mxGeometry>
        </mxCell>
        <mxCell id="4_NJYxRiMZ9WNobx1-F2-24" value="" style="endArrow=none;html=1;rounded=0;" edge="1" parent="1">
          <mxGeometry width="50" height="50" relative="1" as="geometry">
            <mxPoint x="520" y="880" as="sourcePoint" />
            <mxPoint x="520" y="870" as="targetPoint" />
          </mxGeometry>
        </mxCell>
        <mxCell id="4_NJYxRiMZ9WNobx1-F2-25" value="" style="endArrow=none;html=1;rounded=0;" edge="1" parent="1">
          <mxGeometry width="50" height="50" relative="1" as="geometry">
            <mxPoint x="520" y="870" as="sourcePoint" />
            <mxPoint x="540" y="870" as="targetPoint" />
          </mxGeometry>
        </mxCell>
        <mxCell id="4_NJYxRiMZ9WNobx1-F2-26" value="" style="endArrow=none;html=1;rounded=0;" edge="1" parent="1">
          <mxGeometry width="50" height="50" relative="1" as="geometry">
            <mxPoint x="540" y="870" as="sourcePoint" />
            <mxPoint x="540" y="860" as="targetPoint" />
          </mxGeometry>
        </mxCell>
        <mxCell id="4_NJYxRiMZ9WNobx1-F2-27" value="" style="endArrow=none;html=1;rounded=0;" edge="1" parent="1">
          <mxGeometry width="50" height="50" relative="1" as="geometry">
            <mxPoint x="540" y="860" as="sourcePoint" />
            <mxPoint x="560" y="860" as="targetPoint" />
          </mxGeometry>
        </mxCell>
        <mxCell id="4_NJYxRiMZ9WNobx1-F2-28" value="" style="endArrow=none;html=1;rounded=0;" edge="1" parent="1">
          <mxGeometry width="50" height="50" relative="1" as="geometry">
            <mxPoint x="560" y="860" as="sourcePoint" />
            <mxPoint x="610" y="810" as="targetPoint" />
          </mxGeometry>
        </mxCell>
        <mxCell id="4_NJYxRiMZ9WNobx1-F2-29" value="" style="endArrow=none;html=1;rounded=0;" edge="1" parent="1">
          <mxGeometry width="50" height="50" relative="1" as="geometry">
            <mxPoint x="610" y="810" as="sourcePoint" />
            <mxPoint x="610" y="790" as="targetPoint" />
          </mxGeometry>
        </mxCell>
        <mxCell id="4_NJYxRiMZ9WNobx1-F2-30" value="" style="endArrow=none;html=1;rounded=0;" edge="1" parent="1">
          <mxGeometry width="50" height="50" relative="1" as="geometry">
            <mxPoint x="610" y="790" as="sourcePoint" />
            <mxPoint x="630" y="790" as="targetPoint" />
          </mxGeometry>
        </mxCell>
        <mxCell id="4_NJYxRiMZ9WNobx1-F2-31" value="" style="endArrow=none;html=1;rounded=0;" edge="1" parent="1">
          <mxGeometry width="50" height="50" relative="1" as="geometry">
            <mxPoint x="630" y="790" as="sourcePoint" />
            <mxPoint x="660" y="710" as="targetPoint" />
          </mxGeometry>
        </mxCell>
        <mxCell id="4_NJYxRiMZ9WNobx1-F2-32" value="" style="rounded=0;whiteSpace=wrap;html=1;" vertex="1" parent="1">
          <mxGeometry x="130" y="440" width="540" height="40" as="geometry" />
        </mxCell>
        <mxCell id="4_NJYxRiMZ9WNobx1-F2-33" value="" style="rounded=0;whiteSpace=wrap;html=1;" vertex="1" parent="1">
          <mxGeometry x="670" y="440" width="40" height="40" as="geometry" />
        </mxCell>
        <mxCell id="4_NJYxRiMZ9WNobx1-F2-34" value="" style="rounded=0;whiteSpace=wrap;html=1;" vertex="1" parent="1">
          <mxGeometry x="90" y="650" width="40" height="40" as="geometry" />
        </mxCell>
        <mxCell id="4_NJYxRiMZ9WNobx1-F2-35" value="" style="rounded=0;whiteSpace=wrap;html=1;" vertex="1" parent="1">
          <mxGeometry x="90" y="480" width="40" height="170" as="geometry" />
        </mxCell>
        <mxCell id="4_NJYxRiMZ9WNobx1-F2-36" value="" style="rounded=0;whiteSpace=wrap;html=1;" vertex="1" parent="1">
          <mxGeometry x="90" y="440" width="40" height="40" as="geometry" />
        </mxCell>
      </root>
    </mxGraphModel>
  </diagram>
</mxfile>
